<svg width="1200" height="760" viewBox="0 0 1200 760" fill="none" xmlns="http://www.w3.org/2000/svg">
  <rect width="1200" height="760" rx="32" fill="#F7F2EA"/>
  <rect x="26" y="26" width="1148" height="708" rx="24" fill="#FFFCF7" stroke="#D9D0C0" stroke-width="2"/>
  <text x="60" y="86" fill="#1F2923" font-family="Verdana, Arial, sans-serif" font-size="34" font-weight="700">Quick Product Preview</text>
  <text x="60" y="120" fill="#667066" font-family="Verdana, Arial, sans-serif" font-size="18">Representative screens for GitHub preview: login, dashboard, model hub, and chat demo</text>

  <rect x="60" y="156" width="500" height="240" rx="26" fill="#FDECD5" stroke="#D8A96B" stroke-width="2"/>
  <rect x="84" y="180" width="452" height="34" rx="12" fill="#FFF8EC"/>
  <circle cx="104" cy="197" r="6" fill="#E5947A"/>
  <circle cx="124" cy="197" r="6" fill="#E4BC62"/>
  <circle cx="144" cy="197" r="6" fill="#7FB38C"/>
  <text x="84" y="250" fill="#4A3518" font-family="Verdana, Arial, sans-serif" font-size="28" font-weight="700">Login & Tenant Entry</text>
  <rect x="84" y="278" width="184" height="18" rx="9" fill="#EED8B6"/>
  <rect x="84" y="312" width="428" height="22" rx="11" fill="#FFF8EC"/>
  <rect x="84" y="346" width="428" height="22" rx="11" fill="#FFF8EC"/>
  <rect x="84" y="350" width="138" height="0" rx="0" fill="#FFF8EC"/>
  <rect x="84" y="350" width="170" height="0" rx="0" fill="#FFF8EC"/>
  <rect x="84" y="360" width="156" height="16" rx="8" fill="#EED8B6"/>
  <rect x="84" y="370" width="172" height="0" rx="0" fill="#EED8B6"/>
  <rect x="84" y="372" width="168" height="0" rx="0" fill="#EED8B6"/>
  <rect x="84" y="356" width="170" height="0" rx="0" fill="#EED8B6"/>
  <rect x="84" y="358" width="170" height="0" rx="0" fill="#EED8B6"/>
  <rect x="84" y="364" width="172" height="0" rx="0" fill="#EED8B6"/>
  <rect x="84" y="366" width="170" height="0" rx="0" fill="#EED8B6"/>
  <rect x="84" y="364" width="160" height="14" rx="7" fill="#EED8B6"/>
  <rect x="84" y="388" width="160" height="14" rx="7" fill="#EED8B6"/>
  <rect x="84" y="360" width="118" height="18" rx="9" fill="#22352C"/>
  <text x="96" y="373" fill="#F9F6EF" font-family="Verdana, Arial, sans-serif" font-size="12" font-weight="700">Tenant-aware sign in</text>

  <rect x="640" y="156" width="500" height="240" rx="26" fill="#E9F1FC" stroke="#81A1D2" stroke-width="2"/>
  <rect x="664" y="180" width="452" height="34" rx="12" fill="#F7FAFF"/>
  <circle cx="684" cy="197" r="6" fill="#E5947A"/>
  <circle cx="704" cy="197" r="6" fill="#E4BC62"/>
  <circle cx="724" cy="197" r="6" fill="#7FB38C"/>
  <text x="664" y="250" fill="#20324B" font-family="Verdana, Arial, sans-serif" font-size="28" font-weight="700">Dashboard & Agent Runs</text>
  <rect x="664" y="280" width="96" height="72" rx="16" fill="#FFFFFF"/>
  <rect x="776" y="280" width="96" height="72" rx="16" fill="#FFFFFF"/>
  <rect x="888" y="280" width="96" height="72" rx="16" fill="#FFFFFF"/>
  <rect x="1000" y="280" width="96" height="72" rx="16" fill="#FFFFFF"/>
  <rect x="664" y="370" width="432" height="18" rx="9" fill="#C8D9F1"/>
  <rect x="664" y="398" width="392" height="18" rx="9" fill="#D6E3F7"/>

  <rect x="60" y="442" width="500" height="240" rx="26" fill="#EAF4E9" stroke="#86A78A" stroke-width="2"/>
  <rect x="84" y="466" width="452" height="34" rx="12" fill="#F8FCF7"/>
  <circle cx="104" cy="483" r="6" fill="#E5947A"/>
  <circle cx="124" cy="483" r="6" fill="#E4BC62"/>
  <circle cx="144" cy="483" r="6" fill="#7FB38C"/>
  <text x="84" y="536" fill="#233827" font-family="Verdana, Arial, sans-serif" font-size="28" font-weight="700">Model Hub & Leaderboard</text>
  <rect x="84" y="564" width="134" height="86" rx="18" fill="#FFFFFF"/>
  <rect x="234" y="564" width="134" height="86" rx="18" fill="#FFFFFF"/>
  <rect x="384" y="564" width="128" height="86" rx="18" fill="#FFFFFF"/>
  <rect x="100" y="582" width="84" height="12" rx="6" fill="#D4E6D1"/>
  <rect x="250" y="582" width="84" height="12" rx="6" fill="#D4E6D1"/>
  <rect x="400" y="582" width="84" height="12" rx="6" fill="#D4E6D1"/>

  <rect x="640" y="442" width="500" height="240" rx="26" fill="#F6EAF8" stroke="#B28BC8" stroke-width="2"/>
  <rect x="664" y="466" width="452" height="34" rx="12" fill="#FDF8FE"/>
  <circle cx="684" cy="483" r="6" fill="#E5947A"/>
  <circle cx="704" cy="483" r="6" fill="#E4BC62"/>
  <circle cx="724" cy="483" r="6" fill="#7FB38C"/>
  <text x="664" y="536" fill="#4B2F5F" font-family="Verdana, Arial, sans-serif" font-size="28" font-weight="700">Chat Demo & Provider Settings</text>
  <rect x="664" y="568" width="136" height="20" rx="10" fill="#E2CFEC"/>
  <rect x="664" y="600" width="236" height="20" rx="10" fill="#EBDDF3"/>
  <rect x="664" y="632" width="180" height="20" rx="10" fill="#E2CFEC"/>
  <rect x="924" y="568" width="172" height="84" rx="18" fill="#FFFFFF"/>
  <rect x="944" y="590" width="132" height="14" rx="7" fill="#E4D3EE"/>
  <rect x="944" y="618" width="116" height="14" rx="7" fill="#EEDFF5"/>
</svg>
